<mxfile host="app.diagrams.net" modified="2023-02-21T03:00:49.276Z" agent="5.0 (Windows NT 10.0; WOW64) AppleWebKit/537.36 (KHTML, like Gecko) Chrome/86.0.4240.198 Safari/537.36" etag="oeQOt0NAXRF6Qq4Y5kU_" version="20.8.20" type="github">
  <diagram name="第 1 页" id="8jlNIsnWA2ENxNNo2rSE">
    <mxGraphModel dx="948" dy="487" grid="1" gridSize="10" guides="1" tooltips="1" connect="1" arrows="1" fold="1" page="1" pageScale="1" pageWidth="827" pageHeight="1169" math="0" shadow="0">
      <root>
        <mxCell id="0" />
        <mxCell id="1" parent="0" />
        <mxCell id="tGeUGz7FxUVsNur8womr-3" value="" style="edgeStyle=orthogonalEdgeStyle;rounded=0;orthogonalLoop=1;jettySize=auto;html=1;" edge="1" parent="1" source="tGeUGz7FxUVsNur8womr-1">
          <mxGeometry relative="1" as="geometry">
            <mxPoint x="130" y="160" as="targetPoint" />
          </mxGeometry>
        </mxCell>
        <mxCell id="tGeUGz7FxUVsNur8womr-1" value="数据采集" style="ellipse;whiteSpace=wrap;html=1;" vertex="1" parent="1">
          <mxGeometry x="70" y="50" width="120" height="80" as="geometry" />
        </mxCell>
        <mxCell id="tGeUGz7FxUVsNur8womr-8" value="" style="edgeStyle=orthogonalEdgeStyle;rounded=0;orthogonalLoop=1;jettySize=auto;html=1;" edge="1" parent="1" source="tGeUGz7FxUVsNur8womr-6">
          <mxGeometry relative="1" as="geometry">
            <mxPoint x="130" y="280" as="targetPoint" />
          </mxGeometry>
        </mxCell>
        <mxCell id="tGeUGz7FxUVsNur8womr-6" value="得到FPGA数据" style="rhombus;whiteSpace=wrap;html=1;" vertex="1" parent="1">
          <mxGeometry x="80" y="160" width="100" height="70" as="geometry" />
        </mxCell>
        <mxCell id="tGeUGz7FxUVsNur8womr-18" value="" style="edgeStyle=orthogonalEdgeStyle;rounded=0;orthogonalLoop=1;jettySize=auto;html=1;" edge="1" parent="1" source="tGeUGz7FxUVsNur8womr-9">
          <mxGeometry relative="1" as="geometry">
            <mxPoint x="130" y="429.9999999999999" as="targetPoint" />
          </mxGeometry>
        </mxCell>
        <mxCell id="tGeUGz7FxUVsNur8womr-9" value="回拉" style="rhombus;whiteSpace=wrap;html=1;" vertex="1" parent="1">
          <mxGeometry x="85" y="280" width="90" height="70" as="geometry" />
        </mxCell>
        <mxCell id="tGeUGz7FxUVsNur8womr-12" value="是" style="text;html=1;align=center;verticalAlign=middle;resizable=0;points=[];autosize=1;strokeColor=none;fillColor=none;" vertex="1" parent="1">
          <mxGeometry x="140" y="370" width="40" height="30" as="geometry" />
        </mxCell>
        <mxCell id="tGeUGz7FxUVsNur8womr-13" value="是" style="text;html=1;align=center;verticalAlign=middle;resizable=0;points=[];autosize=1;strokeColor=none;fillColor=none;" vertex="1" parent="1">
          <mxGeometry x="130" y="230" width="40" height="30" as="geometry" />
        </mxCell>
        <mxCell id="tGeUGz7FxUVsNur8womr-24" value="将数据push到queue" style="rounded=0;whiteSpace=wrap;html=1;" vertex="1" parent="1">
          <mxGeometry x="70" y="430" width="120" height="60" as="geometry" />
        </mxCell>
      </root>
    </mxGraphModel>
  </diagram>
</mxfile>
